<svg width="42" height="50" viewBox="0 0 42 50" fill="none" xmlns="http://www.w3.org/2000/svg">
<path d="M8.75 16.25C8.75 13.0011 10.0406 9.88525 12.3379 7.58793C14.6353 5.29061 17.7511 3.99999 21 3.99999C24.2489 3.99999 27.3647 5.29061 29.6621 7.58793C31.9594 9.88525 33.25 13.0011 33.25 16.25C33.25 16.7141 33.4344 17.1592 33.7626 17.4874C34.0908 17.8156 34.5359 18 35 18C35.4641 18 35.9092 17.8156 36.2374 17.4874C36.5656 17.1592 36.75 16.7141 36.75 16.25C36.7498 13.564 36.0626 10.9226 34.7538 8.57704C33.445 6.23145 31.5581 4.25954 29.2724 2.84875C26.9867 1.43796 24.3782 0.635171 21.6948 0.516678C19.0114 0.398185 16.3423 0.967931 13.9411 2.17176C11.54 3.37559 9.48659 5.1735 7.97615 7.3946C6.46571 9.6157 5.54841 12.1862 5.31142 14.8617C5.07444 17.5373 5.52565 20.229 6.62217 22.681C7.71869 25.133 9.42408 27.2639 11.5763 28.871C13.4218 30.2496 15.5472 31.2066 17.8027 31.6745C18.1161 32.3773 18.6523 32.9572 19.3283 33.3246C20.0044 33.692 20.7828 33.8263 21.5429 33.7069C22.303 33.5874 23.0026 33.2208 23.5334 32.6637C24.0642 32.1066 24.3966 31.3901 24.4792 30.6251C24.5618 29.8601 24.3901 29.0892 23.9904 28.4316C23.5908 27.7741 22.9857 27.2665 22.2686 26.9875C21.5515 26.7085 20.7624 26.6736 20.0235 26.8881C19.2845 27.1027 18.6369 27.5548 18.1807 28.1745C15.4955 27.5395 13.1034 26.0165 11.3917 23.8522C9.68009 21.688 8.74925 19.0093 8.75 16.25ZM10.5 16.25C10.5007 14.3183 11.0342 12.4243 12.0419 10.7763C13.0496 9.12827 14.4923 7.79018 16.2114 6.90923C17.9305 6.02829 19.8593 5.63864 21.7856 5.78315C23.7118 5.92767 25.5609 6.60076 27.1293 7.72835C28.6977 8.85594 29.9246 10.3943 30.6751 12.1742C31.4256 13.9542 31.6706 15.9066 31.383 17.8167C31.0955 19.7269 30.2866 21.5207 29.0453 23.0008C27.8041 24.4809 26.1786 25.5899 24.3477 26.2057C23.4062 25.4264 22.2222 25 21 25C19.7278 25 18.5623 25.4532 17.6523 26.2057C15.5676 25.5045 13.7557 24.1663 12.4724 22.38C11.1892 20.5937 10.4992 18.4495 10.5 16.25ZM21 35.5C21.8401 35.5004 22.6681 35.2992 23.4143 34.9133C24.1606 34.5274 24.8033 33.968 25.2886 33.2822C25.7738 32.5964 26.0873 31.8041 26.2029 30.9719C26.3184 30.1398 26.2325 29.2921 25.9525 28.5H35.875C37.4995 28.5 39.0574 29.1453 40.206 30.294C41.3547 31.4426 42 33.0005 42 34.625V35.5C42 39.6877 39.3348 43.2297 35.5513 45.6377C31.7468 48.0597 26.5965 49.5 21 49.5C15.4035 49.5 10.255 48.0597 6.44875 45.6377C2.66525 43.2297 0 39.6877 0 35.5V34.625C0 33.0005 0.645311 31.4426 1.79397 30.294C2.94263 29.1453 4.50055 28.5 6.125 28.5H8.50325C10.7414 30.7853 13.5631 32.4134 16.6618 33.2075C17.6068 34.5917 19.1992 35.5 21 35.5Z" fill="#02A1E5"/>
</svg>
