<svg width="59" height="47" viewBox="0 0 59 47" fill="none" xmlns="http://www.w3.org/2000/svg">
<path d="M56.2805 34.2678C56.5202 32.9734 56.5202 31.6516 56.2805 30.3572L58.6589 28.9895C58.9355 28.8334 59.0553 28.5121 58.9631 28.2092C58.3455 26.2264 57.2853 24.4271 55.9025 22.94C55.6905 22.7105 55.3494 22.6555 55.0728 22.8115L52.6944 24.1793C51.6895 23.3256 50.5372 22.6646 49.2927 22.224V19.4885C49.2927 19.1764 49.0714 18.901 48.7672 18.8367C46.7114 18.3777 44.6188 18.3961 42.6644 18.8367C42.3602 18.901 42.1389 19.1764 42.1389 19.4885V22.224C40.8944 22.6646 39.742 23.3256 38.7372 24.1793L36.3587 22.8115C36.0914 22.6555 35.7411 22.7105 35.5291 22.94C34.1463 24.4271 33.0861 26.2264 32.4684 28.2092C32.3763 28.5121 32.5053 28.8334 32.7727 28.9895L35.1511 30.3572C34.9114 31.6516 34.9114 32.9734 35.1511 34.2678L32.7727 35.6355C32.4961 35.7916 32.3763 36.1129 32.4684 36.4158C33.0861 38.3986 34.1463 40.1887 35.5291 41.685C35.7411 41.9145 36.0822 41.9695 36.3587 41.8135L38.7372 40.4457C39.742 41.2994 40.8944 41.9604 42.1389 42.401V45.1365C42.1389 45.4486 42.3602 45.724 42.6644 45.7883C44.7202 46.2473 46.8128 46.2289 48.7672 45.7883C49.0714 45.724 49.2927 45.4486 49.2927 45.1365V42.401C50.5372 41.9604 51.6895 41.2994 52.6944 40.4457L55.0728 41.8135C55.3402 41.9695 55.6905 41.9145 55.9025 41.685C57.2853 40.1979 58.3455 38.3986 58.9631 36.4158C59.0553 36.1129 58.9263 35.7916 58.6589 35.6355L56.2805 34.2678ZM45.725 36.7646C43.2544 36.7646 41.2539 34.7635 41.2539 32.3125C41.2539 29.8615 43.2636 27.8604 45.725 27.8604C48.1864 27.8604 50.1961 29.8615 50.1961 32.3125C50.1961 34.7635 48.1956 36.7646 45.725 36.7646ZM20.65 23.5C27.1677 23.5 32.45 18.24 32.45 11.75C32.45 5.25996 27.1677 0 20.65 0C14.1323 0 8.85 5.25996 8.85 11.75C8.85 18.24 14.1323 23.5 20.65 23.5ZM39.1981 44.292C38.9861 44.1818 38.7741 44.0533 38.5713 43.934L37.843 44.3563C37.2898 44.6684 36.663 44.8428 36.0361 44.8428C35.0312 44.8428 34.0633 44.4205 33.3719 43.6861C31.6848 41.8686 30.3942 39.6562 29.6659 37.2971C29.1589 35.6723 29.8411 33.9557 31.3161 33.102L32.0444 32.6797C32.0352 32.441 32.0352 32.2023 32.0444 31.9637L31.3161 31.5414C29.8411 30.6969 29.1589 28.9711 29.6659 27.3463C29.7489 27.0801 29.8687 26.8139 29.9609 26.5477C29.6106 26.5201 29.2695 26.4375 28.91 26.4375H27.3705C25.3239 27.3738 23.0469 27.9062 20.65 27.9062C18.2531 27.9062 15.9853 27.3738 13.9295 26.4375H12.39C5.54969 26.4375 0 31.9637 0 38.775V42.5938C0 45.0264 1.98203 47 4.425 47H36.875C37.8061 47 38.6727 46.7062 39.3825 46.2197C39.2719 45.8709 39.1981 45.5129 39.1981 45.1365V44.292Z" fill="#02A1E5"/>
</svg>
